# Rhino

v 0 0 -0.01999182440340519
v 0 0 8.17508771433495e-06
v 0 0.5 -0.01999182440340519
v 0 0.5 8.17508771433495e-06
v 0 0.25 -0.01999182440340519
v 0 0.25 8.17508771433495e-06
v 0 0.5 -0.01999182440340519
v 0 0.5 8.17508771433495e-06
v 0.5 0.5 -0.01999182440340519
v 0.5 0.5 8.17508771433495e-06
v 0.25 0.5 -0.01999182440340519
v 0.25 0.5 8.17508771433495e-06
v 0.5 0.5 -0.01999182440340519
v 0.5 0.5 8.17508771433495e-06
v 0.5 0 -0.01999182440340519
v 0.5 0 8.17508771433495e-06
v 0.5 0.25 -0.01999182440340519
v 0.5 0.25 8.17508771433495e-06
v 0.5 0 -0.01999182440340519
v 0.5 0 8.17508771433495e-06
v 0 0 -0.01999182440340519
v 0 0 8.17508771433495e-06
v 0.25 0 -0.01999182440340519
v 0.25 0 8.17508771433495e-06
v 0 0 -0.01999182440340519
v 0 0.5 -0.01999182440340519
v 0.5 0 -0.01999182440340519
v 0.5 0.5 -0.01999182440340519
v 0 0.25 -0.01999182440340519
v 0.25 0.5 -0.01999182440340519
v 0.5 0.25 -0.01999182440340519
v 0.25 0 -0.01999182440340519
v 0 0 8.17508771433495e-06
v 0.5 0 8.17508771433495e-06
v 0 0.5 8.17508771433495e-06
v 0.5 0.5 8.17508771433495e-06
v 0 0.25 8.17508771433495e-06
v 0.25 0.5 8.17508771433495e-06
v 0.5 0.25 8.17508771433495e-06
v 0.25 0 8.17508771433495e-06
vt 0.06896551698446274 0
vt 0.03448275849223137 0
vt 0.06896551698446274 0.8620689511299133
vt 0.03448275849223137 0.8620689511299133
vt 0.06896551698446274 0.4310344755649567
vt 0.03448275849223137 0.4310344755649567
vt 0.03448275849223137 0
vt 0 0
vt 0.03448275849223137 0.8620689511299133
vt 0 0.8620689511299133
vt 0.03448275849223137 0.4310344755649567
vt 0 0.4310344755649567
vt 0.1379310339689255 0
vt 0.1034482792019844 0
vt 0.1379310339689255 0.8620689511299133
vt 0.1034482792019844 0.8620689511299133
vt 0.1379310339689255 0.4310344755649567
vt 0.1034482792019844 0.4310344755649567
vt 0.1034482792019844 0
vt 0.06896551698446274 0
vt 0.1034482792019844 0.8620689511299133
vt 0.06896551698446274 0.8620689511299133
vt 0.1034482792019844 0.4310344755649567
vt 0.06896551698446274 0.4310344755649567
vt 0.1379310339689255 0.5
vt 0.1379310339689255 0.99853515625
vt 0.6364662051200867 0.5
vt 0.6364662051200867 0.99853515625
vt 0.1379310339689255 0.749267578125
vt 0.3871986269950867 0.99853515625
vt 0.6364662051200867 0.749267578125
vt 0.3871986269950867 0.5
vt 0.1379310339689255 0
vt 0.1379310339689255 0.49853515625
vt 0.6364662051200867 0
vt 0.6364662051200867 0.49853515625
vt 0.3871986269950867 0
vt 0.6364662051200867 0.249267578125
vt 0.3871986269950867 0.49853515625
vt 0.1379310339689255 0.249267578125
vn -1 -0 -0
vn -1 -0 -0
vn -1 -0 -0
vn -1 -0 -0
vn -1 -0 -0
vn -1 -0 -0
vn -0 1 -0
vn -0 1 -0
vn -0 1 -0
vn -0 1 -0
vn -0 1 -0
vn -0 1 -0
vn 1 -0 -0
vn 1 -0 -0
vn 1 -0 -0
vn 1 -0 -0
vn 1 -0 -0
vn 1 -0 -0
vn -0 -1 0
vn -0 -1 0
vn -0 -1 0
vn -0 -1 0
vn -0 -1 0
vn -0 -1 0
vn -0 -0 -1
vn -0 -0 -1
vn -0 -0 -1
vn -0 -0 -1
vn -0 -0 -1
vn -0 -0 -1
vn -0 -0 -1
vn -0 -0 -1
vn -0 -0 1
vn -0 -0 1
vn -0 -0 1
vn -0 -0 1
vn -0 -0 1
vn -0 -0 1
vn -0 -0 1
vn -0 -0 1
f 1/1/1 6/6/6 5/5/5
f 5/5/5 4/4/4 3/3/3
f 4/4/4 5/5/5 6/6/6
f 6/6/6 1/1/1 2/2/2
f 7/7/7 12/12/12 11/11/11
f 11/11/11 10/10/10 9/9/9
f 10/10/10 11/11/11 12/12/12
f 12/12/12 7/7/7 8/8/8
f 13/13/13 18/18/18 17/17/17
f 17/17/17 16/16/16 15/15/15
f 16/16/16 17/17/17 18/18/18
f 18/18/18 13/13/13 14/14/14
f 19/19/19 24/24/24 23/23/23
f 23/23/23 22/22/22 21/21/21
f 22/22/22 23/23/23 24/24/24
f 24/24/24 19/19/19 20/20/20
f 26/26/26 30/30/30 29/29/29
f 29/29/29 32/32/32 25/25/25
f 28/28/28 31/31/31 30/30/30
f 27/27/27 32/32/32 31/31/31
f 30/30/30 32/32/32 29/29/29
f 31/31/31 32/32/32 30/30/30
f 33/33/33 40/40/40 37/37/37
f 37/37/37 38/38/38 35/35/35
f 38/38/38 39/39/39 36/36/36
f 39/39/39 40/40/40 34/34/34
f 40/40/40 38/38/38 37/37/37
f 38/38/38 40/40/40 39/39/39
