# Rhino

v 0 0 -0.01999182440340519
v 0 0 8.17508771433495e-06
v 0 0.5 -0.01999182440340519
v 0 0.5 8.17508771433495e-06
v 0 0.5 -0.01999182440340519
v 0 0.5 8.17508771433495e-06
v 0.5 0.5 -0.01999182440340519
v 0.5 0.5 8.17508771433495e-06
v 0.5 0.5 -0.01999182440340519
v 0.5 0.5 8.17508771433495e-06
v 0.5 0 -0.01999182440340519
v 0.5 0 8.17508771433495e-06
v 0.5 0 -0.01999182440340519
v 0.5 0 8.17508771433495e-06
v 0 0 -0.01999182440340519
v 0 0 8.17508771433495e-06
v 0 0 -0.01999182440340519
v 0 0.5 -0.01999182440340519
v 0.5 0 -0.01999182440340519
v 0.5 0.5 -0.01999182440340519
v 0 0 8.17508771433495e-06
v 0.5 0 8.17508771433495e-06
v 0 0.5 8.17508771433495e-06
v 0.5 0.5 8.17508771433495e-06
vt 0.06896551698446274 0
vt 0.03448275849223137 0
vt 0.06896551698446274 0.8620689511299133
vt 0.03448275849223137 0.8620689511299133
vt 0.03448275849223137 0
vt 0 0
vt 0.03448275849223137 0.8620689511299133
vt 0 0.8620689511299133
vt 0.1379310339689255 0
vt 0.1034482792019844 0
vt 0.1379310339689255 0.8620689511299133
vt 0.1034482792019844 0.8620689511299133
vt 0.1034482792019844 0
vt 0.06896551698446274 0
vt 0.1034482792019844 0.8620689511299133
vt 0.06896551698446274 0.8620689511299133
vt 0.1379310339689255 0.5
vt 0.1379310339689255 0.99853515625
vt 0.6364662051200867 0.5
vt 0.6364662051200867 0.99853515625
vt 0.1379310339689255 0
vt 0.1379310339689255 0.49853515625
vt 0.6364662051200867 0
vt 0.6364662051200867 0.49853515625
vn -1 -0 -0
vn -1 -0 -0
vn -1 -0 -0
vn -1 -0 -0
vn -0 1 -0
vn -0 1 -0
vn -0 1 -0
vn -0 1 -0
vn 1 -0 -0
vn 1 -0 -0
vn 1 -0 -0
vn 1 -0 -0
vn -0 -1 0
vn -0 -1 0
vn -0 -1 0
vn -0 -1 0
vn -0 -0 -1
vn -0 -0 -1
vn -0 -0 -1
vn -0 -0 -1
vn -0 -0 1
vn -0 -0 1
vn -0 -0 1
vn -0 -0 1
f 1/1/1 4/4/4 3/3/3
f 4/4/4 1/1/1 2/2/2
f 5/5/5 8/8/8 7/7/7
f 8/8/8 5/5/5 6/6/6
f 9/9/9 12/12/12 11/11/11
f 12/12/12 9/9/9 10/10/10
f 13/13/13 16/16/16 15/15/15
f 16/16/16 13/13/13 14/14/14
f 18/18/18 19/19/19 17/17/17
f 20/20/20 19/19/19 18/18/18
f 21/21/21 24/24/24 23/23/23
f 24/24/24 21/21/21 22/22/22
